<svg width="38" height="41" viewBox="0 0 38 41" fill="none" xmlns="http://www.w3.org/2000/svg">
<path d="M12.225 24.125H4.625L3.225 28H0.825L7.125 10.675H9.75L16.025 28H13.625L12.225 24.125ZM11.575 22.275L8.425 13.475L5.275 22.275H11.575Z" fill="black"/>
<path d="M14.7 25.025C14.7 23.575 14.9917 22.3083 15.575 21.225C16.175 20.1417 17 19.3083 18.05 18.725C19.1167 18.1417 20.3333 17.85 21.7 17.85C23.45 17.85 24.9083 18.3083 26.075 19.225C27.2583 20.1417 28.0333 21.4333 28.4 23.1H23.85C23.4667 22.0333 22.725 21.5 21.625 21.5C20.8417 21.5 20.2167 21.8083 19.75 22.425C19.2833 23.025 19.05 23.8917 19.05 25.025C19.05 26.1583 19.2833 27.0333 19.75 27.65C20.2167 28.25 20.8417 28.55 21.625 28.55C22.725 28.55 23.4667 28.0167 23.85 26.95H28.4C28.0333 28.5833 27.2583 29.8667 26.075 30.8C24.8917 31.7333 23.4333 32.2 21.7 32.2C20.3333 32.2 19.1167 31.9083 18.05 31.325C17 30.7417 16.175 29.9083 15.575 28.825C14.9917 27.7417 14.7 26.475 14.7 25.025Z" fill="black"/>
</svg>
